<svg width="512" height="63" viewBox="0 0 512 63" version="1.1" xmlns="http://www.w3.org/2000/svg" xmlns:xlink="http://www.w3.org/1999/xlink">
<title>Group 3</title>
<desc>Created using Figma</desc>
<g id="Canvas" transform="translate(417 144)">
<g id="Group 3">
<g id="Group 2">
<g id="Rectangle 2">
<use xlink:href="#path0_fill" transform="translate(-179 -144)" fill="#525252"/>
</g>
<g id="Rectangle 3">
<use xlink:href="#path1_fill" transform="translate(-175 -139)" fill="#FFFFFF"/>
</g>
<g id="s 211 ----- 212 0 ----- 00 00 ---- - ------ ------ -- ------ ------- -- --- --- ----- - --------- ----">
<use xlink:href="#path2_fill" transform="translate(-171 -135)" fill="#D9D9D9"/>
<use xlink:href="#path3_fill" transform="translate(-171 -135)" fill="#D9D9D9"/>
<use xlink:href="#path4_fill" transform="translate(-171 -135)" fill="#D9D9D9"/>
<use xlink:href="#path5_fill" transform="translate(-171 -135)" fill="#D9D9D9"/>
<use xlink:href="#path6_fill" transform="translate(-171 -135)" fill="#D9D9D9"/>
<use xlink:href="#path7_fill" transform="translate(-171 -135)" fill="#D9D9D9"/>
<use xlink:href="#path8_fill" transform="translate(-171 -135)" fill="#D9D9D9"/>
<use xlink:href="#path9_fill" transform="translate(-171 -135)" fill="#D9D9D9"/>
<use xlink:href="#path10_fill" transform="translate(-171 -135)" fill="#D9D9D9"/>
<use xlink:href="#path11_fill" transform="translate(-171 -135)" fill="#D9D9D9"/>
<use xlink:href="#path12_fill" transform="translate(-171 -135)" fill="#D9D9D9"/>
<use xlink:href="#path13_fill" transform="translate(-171 -135)" fill="#D9D9D9"/>
<use xlink:href="#path14_fill" transform="translate(-171 -135)" fill="#D9D9D9"/>
<use xlink:href="#path15_fill" transform="translate(-171 -135)" fill="#D9D9D9"/>
<use xlink:href="#path16_fill" transform="translate(-171 -135)" fill="#D9D9D9"/>
<use xlink:href="#path17_fill" transform="translate(-171 -135)" fill="#D9D9D9"/>
<use xlink:href="#path18_fill" transform="translate(-171 -135)" fill="#D9D9D9"/>
<use xlink:href="#path19_fill" transform="translate(-171 -135)" fill="#D9D9D9"/>
<use xlink:href="#path20_fill" transform="translate(-171 -135)" fill="#D9D9D9"/>
<use xlink:href="#path21_fill" transform="translate(-171 -135)" fill="#D9D9D9"/>
<use xlink:href="#path22_fill" transform="translate(-171 -135)" fill="#D9D9D9"/>
<use xlink:href="#path23_fill" transform="translate(-171 -135)" fill="#D9D9D9"/>
<use xlink:href="#path24_fill" transform="translate(-171 -135)" fill="#D9D9D9"/>
<use xlink:href="#path25_fill" transform="translate(-171 -135)" fill="#D9D9D9"/>
<use xlink:href="#path26_fill" transform="translate(-171 -135)" fill="#D9D9D9"/>
<use xlink:href="#path27_fill" transform="translate(-171 -135)" fill="#D9D9D9"/>
<use xlink:href="#path28_fill" transform="translate(-171 -135)" fill="#D9D9D9"/>
<use xlink:href="#path29_fill" transform="translate(-171 -135)" fill="#D9D9D9"/>
<use xlink:href="#path30_fill" transform="translate(-171 -135)" fill="#D9D9D9"/>
<use xlink:href="#path31_fill" transform="translate(-171 -135)" fill="#D9D9D9"/>
<use xlink:href="#path32_fill" transform="translate(-171 -135)" fill="#D9D9D9"/>
<use xlink:href="#path33_fill" transform="translate(-171 -135)" fill="#D9D9D9"/>
<use xlink:href="#path34_fill" transform="translate(-171 -135)" fill="#D9D9D9"/>
<use xlink:href="#path35_fill" transform="translate(-171 -135)" fill="#D9D9D9"/>
<use xlink:href="#path36_fill" transform="translate(-171 -135)" fill="#D9D9D9"/>
<use xlink:href="#path37_fill" transform="translate(-171 -135)" fill="#D9D9D9"/>
<use xlink:href="#path38_fill" transform="translate(-171 -135)" fill="#D9D9D9"/>
<use xlink:href="#path39_fill" transform="translate(-171 -135)" fill="#D9D9D9"/>
<use xlink:href="#path40_fill" transform="translate(-171 -135)" fill="#D9D9D9"/>
<use xlink:href="#path41_fill" transform="translate(-171 -135)" fill="#D9D9D9"/>
<use xlink:href="#path42_fill" transform="translate(-171 -135)" fill="#D9D9D9"/>
<use xlink:href="#path43_fill" transform="translate(-171 -135)" fill="#D9D9D9"/>
<use xlink:href="#path44_fill" transform="translate(-171 -135)" fill="#D9D9D9"/>
<use xlink:href="#path45_fill" transform="translate(-171 -135)" fill="#D9D9D9"/>
<use xlink:href="#path46_fill" transform="translate(-171 -135)" fill="#D9D9D9"/>
<use xlink:href="#path47_fill" transform="translate(-171 -135)" fill="#D9D9D9"/>
<use xlink:href="#path48_fill" transform="translate(-171 -135)" fill="#D9D9D9"/>
<use xlink:href="#path49_fill" transform="translate(-171 -135)" fill="#D9D9D9"/>
<use xlink:href="#path50_fill" transform="translate(-171 -135)" fill="#D9D9D9"/>
<use xlink:href="#path51_fill" transform="translate(-171 -135)" fill="#D9D9D9"/>
<use xlink:href="#path52_fill" transform="translate(-171 -135)" fill="#D9D9D9"/>
<use xlink:href="#path53_fill" transform="translate(-171 -135)" fill="#D9D9D9"/>
<use xlink:href="#path54_fill" transform="translate(-171 -135)" fill="#D9D9D9"/>
<use xlink:href="#path55_fill" transform="translate(-171 -135)" fill="#D9D9D9"/>
<use xlink:href="#path56_fill" transform="translate(-171 -135)" fill="#D9D9D9"/>
<use xlink:href="#path57_fill" transform="translate(-171 -135)" fill="#D9D9D9"/>
<use xlink:href="#path58_fill" transform="translate(-171 -135)" fill="#D9D9D9"/>
<use xlink:href="#path59_fill" transform="translate(-171 -135)" fill="#D9D9D9"/>
<use xlink:href="#path60_fill" transform="translate(-171 -135)" fill="#D9D9D9"/>
<use xlink:href="#path61_fill" transform="translate(-171 -135)" fill="#D9D9D9"/>
<use xlink:href="#path62_fill" transform="translate(-171 -135)" fill="#D9D9D9"/>
<use xlink:href="#path63_fill" transform="translate(-171 -135)" fill="#D9D9D9"/>
<use xlink:href="#path64_fill" transform="translate(-171 -135)" fill="#D9D9D9"/>
<use xlink:href="#path65_fill" transform="translate(-171 -135)" fill="#D9D9D9"/>
<use xlink:href="#path66_fill" transform="translate(-171 -135)" fill="#D9D9D9"/>
<use xlink:href="#path67_fill" transform="translate(-171 -135)" fill="#D9D9D9"/>
<use xlink:href="#path68_fill" transform="translate(-171 -135)" fill="#D9D9D9"/>
<use xlink:href="#path69_fill" transform="translate(-171 -135)" fill="#D9D9D9"/>
<use xlink:href="#path70_fill" transform="translate(-171 -135)" fill="#D9D9D9"/>
<use xlink:href="#path71_fill" transform="translate(-171 -135)" fill="#D9D9D9"/>
<use xlink:href="#path72_fill" transform="translate(-171 -135)" fill="#D9D9D9"/>
<use xlink:href="#path73_fill" transform="translate(-171 -135)" fill="#D9D9D9"/>
<use xlink:href="#path74_fill" transform="translate(-171 -135)" fill="#D9D9D9"/>
<use xlink:href="#path75_fill" transform="translate(-171 -135)" fill="#D9D9D9"/>
<use xlink:href="#path76_fill" transform="translate(-171 -135)" fill="#D9D9D9"/>
<use xlink:href="#path77_fill" transform="translate(-171 -135)" fill="#D9D9D9"/>
<use xlink:href="#path78_fill" transform="translate(-171 -135)" fill="#D9D9D9"/>
<use xlink:href="#path79_fill" transform="translate(-171 -135)" fill="#D9D9D9"/>
<use xlink:href="#path80_fill" transform="translate(-171 -135)" fill="#D9D9D9"/>
<use xlink:href="#path81_fill" transform="translate(-171 -135)" fill="#D9D9D9"/>
<use xlink:href="#path82_fill" transform="translate(-171 -135)" fill="#D9D9D9"/>
</g>
<g id="Group">
<g id="Polygon">
<use xlink:href="#path83_fill" transform="matrix(-4.29076e-08 1 -1 -4.45303e-08 -169 -124)" fill="#27AE60"/>
</g>
<g id="Rectangle">
<use xlink:href="#path84_fill" transform="translate(-201 -116.434)" fill="#27AE60"/>
</g>
</g>
</g>
<g id="SAFARI KINDLE">
<use xlink:href="#path85_fill" transform="translate(-418 -164)" fill="#525252"/>
<use xlink:href="#path86_fill" transform="translate(-418 -164)" fill="#F2994A"/>
</g>
</g>
</g>
<defs>
<path id="path0_fill" d="M 0 0L 45 0L 45 63L 0 63L 0 0Z"/>
<path id="path1_fill" d="M 0 0L 37 0L 37 46L 0 46L 0 0Z"/>
<path id="path2_fill" d="M 0 0.730199L 0 0.74C 0 1.16146 0.315485 1.4702 0.746148 1.4702L 3.57049 1.4702C 4.00116 1.4702 4.31664 1.16146 4.31664 0.74L 4.31664 0.730199C 4.31664 0.308742 4.00116 0 3.57049 0L 0.746148 0C 0.315485 0 0 0.308742 0 0.730199Z"/>
<path id="path3_fill" d="M 5.81461 0.730199L 5.81461 0.74C 5.81461 1.16146 6.13009 1.4702 6.56076 1.4702L 9.3851 1.4702C 9.81576 1.4702 10.1312 1.16146 10.1312 0.74L 10.1312 0.730199C 10.1312 0.308742 9.81576 0 9.3851 0L 6.56076 0C 6.13009 0 5.81461 0.308742 5.81461 0.730199Z"/>
<path id="path4_fill" d="M 8.62655 0.730199L 8.62655 0.74C 8.62655 1.16146 8.94204 1.4702 9.3727 1.4702L 12.197 1.4702C 12.6277 1.4702 12.9432 1.16146 12.9432 0.74L 12.9432 0.730199C 12.9432 0.308742 12.6277 0 12.197 0L 9.3727 0C 8.94204 0 8.62655 0.308742 8.62655 0.730199Z"/>
<path id="path5_fill" d="M 11.4385 0.730199L 11.4385 0.74C 11.4385 1.16146 11.754 1.4702 12.1846 1.4702L 15.009 1.4702C 15.4396 1.4702 15.7551 1.16146 15.7551 0.74L 15.7551 0.730199C 15.7551 0.308742 15.4396 0 15.009 0L 12.1846 0C 11.754 0 11.4385 0.308742 11.4385 0.730199Z"/>
<path id="path6_fill" d="M 17.2531 0.730199L 17.2531 0.74C 17.2531 1.16146 17.5686 1.4702 17.9993 1.4702L 19.4415 1.4702C 19.8721 1.4702 20.1876 1.16146 20.1876 0.74L 20.1876 0.730199C 20.1876 0.308742 19.8721 0 19.4415 0L 17.9993 0C 17.5686 0 17.2531 0.308742 17.2531 0.730199Z"/>
<path id="path7_fill" d="M 18.686 0.730199L 18.686 0.74C 18.686 1.16146 19.0015 1.4702 19.4321 1.4702L 20.8743 1.4702C 21.305 1.4702 21.6205 1.16146 21.6205 0.74L 21.6205 0.730199C 21.6205 0.308742 21.305 0 20.8743 0L 19.4321 0C 19.0015 0 18.686 0.308742 18.686 0.730199Z"/>
<path id="path8_fill" d="M 20.1188 0.730199L 20.1188 0.74C 20.1188 1.16146 20.4343 1.4702 20.865 1.4702L 22.3072 1.4702C 22.7379 1.4702 23.0534 1.16146 23.0534 0.74L 23.0534 0.730199C 23.0534 0.308742 22.7379 0 22.3072 0L 20.865 0C 20.4343 0 20.1188 0.308742 20.1188 0.730199Z"/>
<path id="path9_fill" d="M 21.5517 0.730199L 21.5517 0.74C 21.5517 1.16146 21.8672 1.4702 22.2979 1.4702L 23.7401 1.4702C 24.1707 1.4702 24.4862 1.16146 24.4862 0.74L 24.4862 0.730199C 24.4862 0.308742 24.1707 0 23.7401 0L 22.2979 0C 21.8672 0 21.5517 0.308742 21.5517 0.730199Z"/>
<path id="path10_fill" d="M 22.9846 0.730199L 22.9846 0.74C 22.9846 1.16146 23.3001 1.4702 23.7307 1.4702L 25.1729 1.4702C 25.6036 1.4702 25.9191 1.16146 25.9191 0.74L 25.9191 0.730199C 25.9191 0.308742 25.6036 0 25.1729 0L 23.7307 0C 23.3001 0 22.9846 0.308742 22.9846 0.730199Z"/>
<path id="path11_fill" d="M 0 6.85603L 0 6.86583C 0 7.28728 0.315485 7.59603 0.746148 7.59603L 3.57049 7.59603C 4.00116 7.59603 4.31664 7.28728 4.31664 6.86583L 4.31664 6.85603C 4.31664 6.43457 4.00116 6.12583 3.57049 6.12583L 0.746148 6.12583C 0.315485 6.12583 0 6.43457 0 6.85603Z"/>
<path id="path12_fill" d="M 2.81194 6.85603L 2.81194 6.86583C 2.81194 7.28728 3.12743 7.59603 3.55809 7.59603L 6.38243 7.59603C 6.8131 7.59603 7.12858 7.28728 7.12858 6.86583L 7.12858 6.85603C 7.12858 6.43457 6.8131 6.12583 6.38243 6.12583L 3.55809 6.12583C 3.12743 6.12583 2.81194 6.43457 2.81194 6.85603Z"/>
<path id="path13_fill" d="M 5.62389 6.85603L 5.62389 6.86583C 5.62389 7.28728 5.93937 7.59603 6.37003 7.59603L 9.19438 7.59603C 9.62504 7.59603 9.94053 7.28728 9.94053 6.86583L 9.94053 6.85603C 9.94053 6.43457 9.62504 6.12583 9.19438 6.12583L 6.37003 6.12583C 5.93937 6.12583 5.62389 6.43457 5.62389 6.85603Z"/>
<path id="path14_fill" d="M 11.4385 6.85603L 11.4385 6.86583C 11.4385 7.28728 11.754 7.59603 12.1846 7.59603L 15.009 7.59603C 15.4396 7.59603 15.7551 7.28728 15.7551 6.86583L 15.7551 6.85603C 15.7551 6.43457 15.4396 6.12583 15.009 6.12583L 12.1846 6.12583C 11.754 6.12583 11.4385 6.43457 11.4385 6.85603Z"/>
<path id="path15_fill" d="M 17.2531 6.85603L 17.2531 6.86583C 17.2531 7.28728 17.5686 7.59603 17.9993 7.59603L 19.4415 7.59603C 19.8721 7.59603 20.1876 7.28728 20.1876 6.86583L 20.1876 6.85603C 20.1876 6.43457 19.8721 6.12583 19.4415 6.12583L 17.9993 6.12583C 17.5686 6.12583 17.2531 6.43457 17.2531 6.85603Z"/>
<path id="path16_fill" d="M 18.686 6.85603L 18.686 6.86583C 18.686 7.28728 19.0015 7.59603 19.4321 7.59603L 20.8743 7.59603C 21.305 7.59603 21.6205 7.28728 21.6205 6.86583L 21.6205 6.85603C 21.6205 6.43457 21.305 6.12583 20.8743 6.12583L 19.4321 6.12583C 19.0015 6.12583 18.686 6.43457 18.686 6.85603Z"/>
<path id="path17_fill" d="M 20.1188 6.85603L 20.1188 6.86583C 20.1188 7.28728 20.4343 7.59603 20.865 7.59603L 22.3072 7.59603C 22.7379 7.59603 23.0534 7.28728 23.0534 6.86583L 23.0534 6.85603C 23.0534 6.43457 22.7379 6.12583 22.3072 6.12583L 20.865 6.12583C 20.4343 6.12583 20.1188 6.43457 20.1188 6.85603Z"/>
<path id="path18_fill" d="M 21.5517 6.85603L 21.5517 6.86583C 21.5517 7.28728 21.8672 7.59603 22.2979 7.59603L 23.7401 7.59603C 24.1707 7.59603 24.4862 7.28728 24.4862 6.86583L 24.4862 6.85603C 24.4862 6.43457 24.1707 6.12583 23.7401 6.12583L 22.2979 6.12583C 21.8672 6.12583 21.5517 6.43457 21.5517 6.85603Z"/>
<path id="path19_fill" d="M 22.9846 6.85603L 22.9846 6.86583C 22.9846 7.28728 23.3001 7.59603 23.7307 7.59603L 25.1729 7.59603C 25.6036 7.59603 25.9191 7.28728 25.9191 6.86583L 25.9191 6.85603C 25.9191 6.43457 25.6036 6.12583 25.1729 6.12583L 23.7307 6.12583C 23.3001 6.12583 22.9846 6.43457 22.9846 6.85603Z"/>
<path id="path20_fill" d="M 0 12.9819L 0 12.9917C 0 13.4131 0.315485 13.7219 0.746148 13.7219L 3.57049 13.7219C 4.00116 13.7219 4.31664 13.4131 4.31664 12.9917L 4.31664 12.9819C 4.31664 12.5604 4.00116 12.2517 3.57049 12.2517L 0.746148 12.2517C 0.315485 12.2517 0 12.5604 0 12.9819Z"/>
<path id="path21_fill" d="M 2.81194 12.9819L 2.81194 12.9917C 2.81194 13.4131 3.12743 13.7219 3.55809 13.7219L 6.38243 13.7219C 6.8131 13.7219 7.12858 13.4131 7.12858 12.9917L 7.12858 12.9819C 7.12858 12.5604 6.8131 12.2517 6.38243 12.2517L 3.55809 12.2517C 3.12743 12.2517 2.81194 12.5604 2.81194 12.9819Z"/>
<path id="path22_fill" d="M 8.62655 12.9819L 8.62655 12.9917C 8.62655 13.4131 8.94204 13.7219 9.3727 13.7219L 12.197 13.7219C 12.6277 13.7219 12.9432 13.4131 12.9432 12.9917L 12.9432 12.9819C 12.9432 12.5604 12.6277 12.2517 12.197 12.2517L 9.3727 12.2517C 8.94204 12.2517 8.62655 12.5604 8.62655 12.9819Z"/>
<path id="path23_fill" d="M 11.4385 12.9819L 11.4385 12.9917C 11.4385 13.4131 11.754 13.7219 12.1846 13.7219L 15.009 13.7219C 15.4396 13.7219 15.7551 13.4131 15.7551 12.9917L 15.7551 12.9819C 15.7551 12.5604 15.4396 12.2517 15.009 12.2517L 12.1846 12.2517C 11.754 12.2517 11.4385 12.5604 11.4385 12.9819Z"/>
<path id="path24_fill" d="M 17.2531 12.9819L 17.2531 12.9917C 17.2531 13.4131 17.5686 13.7219 17.9993 13.7219L 19.4415 13.7219C 19.8721 13.7219 20.1876 13.4131 20.1876 12.9917L 20.1876 12.9819C 20.1876 12.5604 19.8721 12.2517 19.4415 12.2517L 17.9993 12.2517C 17.5686 12.2517 17.2531 12.5604 17.2531 12.9819Z"/>
<path id="path25_fill" d="M 18.686 12.9819L 18.686 12.9917C 18.686 13.4131 19.0015 13.7219 19.4321 13.7219L 20.8743 13.7219C 21.305 13.7219 21.6205 13.4131 21.6205 12.9917L 21.6205 12.9819C 21.6205 12.5604 21.305 12.2517 20.8743 12.2517L 19.4321 12.2517C 19.0015 12.2517 18.686 12.5604 18.686 12.9819Z"/>
<path id="path26_fill" d="M 20.1188 12.9819L 20.1188 12.9917C 20.1188 13.4131 20.4343 13.7219 20.865 13.7219L 22.3072 13.7219C 22.7379 13.7219 23.0534 13.4131 23.0534 12.9917L 23.0534 12.9819C 23.0534 12.5604 22.7379 12.2517 22.3072 12.2517L 20.865 12.2517C 20.4343 12.2517 20.1188 12.5604 20.1188 12.9819Z"/>
<path id="path27_fill" d="M 21.5517 12.9819L 21.5517 12.9917C 21.5517 13.4131 21.8672 13.7219 22.2979 13.7219L 23.7401 13.7219C 24.1707 13.7219 24.4862 13.4131 24.4862 12.9917L 24.4862 12.9819C 24.4862 12.5604 24.1707 12.2517 23.7401 12.2517L 22.2979 12.2517C 21.8672 12.2517 21.5517 12.5604 21.5517 12.9819Z"/>
<path id="path28_fill" d="M 25.9872 12.9819L 25.9872 12.9917C 25.9872 13.4131 26.3027 13.7219 26.7334 13.7219L 28.1756 13.7219C 28.6063 13.7219 28.9218 13.4131 28.9218 12.9917L 28.9218 12.9819C 28.9218 12.5604 28.6063 12.2517 28.1756 12.2517L 26.7334 12.2517C 26.3027 12.2517 25.9872 12.5604 25.9872 12.9819Z"/>
<path id="path29_fill" d="M 0 17.8825L 0 17.8923C 0 18.3138 0.315485 18.6225 0.746148 18.6225L 2.18837 18.6225C 2.61903 18.6225 2.93451 18.3138 2.93451 17.8923L 2.93451 17.8825C 2.93451 17.4611 2.61903 17.1523 2.18837 17.1523L 0.746148 17.1523C 0.315485 17.1523 0 17.4611 0 17.8825Z"/>
<path id="path30_fill" d="M 1.43287 17.8825L 1.43287 17.8923C 1.43287 18.3138 1.74835 18.6225 2.17902 18.6225L 3.62123 18.6225C 4.0519 18.6225 4.36738 18.3138 4.36738 17.8923L 4.36738 17.8825C 4.36738 17.4611 4.0519 17.1523 3.62123 17.1523L 2.17902 17.1523C 1.74835 17.1523 1.43287 17.4611 1.43287 17.8825Z"/>
<path id="path31_fill" d="M 2.86574 17.8825L 2.86574 17.8923C 2.86574 18.3138 3.18122 18.6225 3.61188 18.6225L 5.0541 18.6225C 5.48477 18.6225 5.80025 18.3138 5.80025 17.8923L 5.80025 17.8825C 5.80025 17.4611 5.48477 17.1523 5.0541 17.1523L 3.61188 17.1523C 3.18122 17.1523 2.86574 17.4611 2.86574 17.8825Z"/>
<path id="path32_fill" d="M 4.2986 17.8825L 4.2986 17.8923C 4.2986 18.3138 4.61409 18.6225 5.04475 18.6225L 6.48697 18.6225C 6.91763 18.6225 7.23312 18.3138 7.23312 17.8923L 7.23312 17.8825C 7.23312 17.4611 6.91763 17.1523 6.48697 17.1523L 5.04475 17.1523C 4.61409 17.1523 4.2986 17.4611 4.2986 17.8825Z"/>
<path id="path33_fill" d="M 5.73147 17.8825L 5.73147 17.8923C 5.73147 18.3138 6.04696 18.6225 6.47762 18.6225L 7.91984 18.6225C 8.3505 18.6225 8.66599 18.3138 8.66599 17.8923L 8.66599 17.8825C 8.66599 17.4611 8.3505 17.1523 7.91984 17.1523L 6.47762 17.1523C 6.04696 17.1523 5.73147 17.4611 5.73147 17.8825Z"/>
<path id="path34_fill" d="M 7.16434 17.8825L 7.16434 17.8923C 7.16434 18.3138 7.47983 18.6225 7.91049 18.6225L 9.35271 18.6225C 9.78337 18.6225 10.0989 18.3138 10.0989 17.8923L 10.0989 17.8825C 10.0989 17.4611 9.78337 17.1523 9.35271 17.1523L 7.91049 17.1523C 7.47983 17.1523 7.16434 17.4611 7.16434 17.8825Z"/>
<path id="path35_fill" d="M 11.5999 17.8825L 11.5999 17.8923C 11.5999 18.3138 11.9154 18.6225 12.346 18.6225L 13.7882 18.6225C 14.2189 18.6225 14.5344 18.3138 14.5344 17.8923L 14.5344 17.8825C 14.5344 17.4611 14.2189 17.1523 13.7882 17.1523L 12.346 17.1523C 11.9154 17.1523 11.5999 17.4611 11.5999 17.8825Z"/>
<path id="path36_fill" d="M 13.0327 17.8825L 13.0327 17.8923C 13.0327 18.3138 13.3482 18.6225 13.7789 18.6225L 15.2211 18.6225C 15.6518 18.6225 15.9673 18.3138 15.9673 17.8923L 15.9673 17.8825C 15.9673 17.4611 15.6518 17.1523 15.2211 17.1523L 13.7789 17.1523C 13.3482 17.1523 13.0327 17.4611 13.0327 17.8825Z"/>
<path id="path37_fill" d="M 14.4656 17.8825L 14.4656 17.8923C 14.4656 18.3138 14.7811 18.6225 15.2118 18.6225L 16.654 18.6225C 17.0846 18.6225 17.4001 18.3138 17.4001 17.8923L 17.4001 17.8825C 17.4001 17.4611 17.0846 17.1523 16.654 17.1523L 15.2118 17.1523C 14.7811 17.1523 14.4656 17.4611 14.4656 17.8825Z"/>
<path id="path38_fill" d="M 15.8985 17.8825L 15.8985 17.8923C 15.8985 18.3138 16.214 18.6225 16.6446 18.6225L 18.0868 18.6225C 18.5175 18.6225 18.833 18.3138 18.833 17.8923L 18.833 17.8825C 18.833 17.4611 18.5175 17.1523 18.0868 17.1523L 16.6446 17.1523C 16.214 17.1523 15.8985 17.4611 15.8985 17.8825Z"/>
<path id="path39_fill" d="M 17.3313 17.8825L 17.3313 17.8923C 17.3313 18.3138 17.6468 18.6225 18.0775 18.6225L 19.5197 18.6225C 19.9504 18.6225 20.2659 18.3138 20.2659 17.8923L 20.2659 17.8825C 20.2659 17.4611 19.9504 17.1523 19.5197 17.1523L 18.0775 17.1523C 17.6468 17.1523 17.3313 17.4611 17.3313 17.8825Z"/>
<path id="path40_fill" d="M 18.7642 17.8825L 18.7642 17.8923C 18.7642 18.3138 19.0797 18.6225 19.5104 18.6225L 20.9526 18.6225C 21.3832 18.6225 21.6987 18.3138 21.6987 17.8923L 21.6987 17.8825C 21.6987 17.4611 21.3832 17.1523 20.9526 17.1523L 19.5104 17.1523C 19.0797 17.1523 18.7642 17.4611 18.7642 17.8825Z"/>
<path id="path41_fill" d="M 23.1997 17.8825L 23.1997 17.8923C 23.1997 18.3138 23.5152 18.6225 23.9459 18.6225L 25.3881 18.6225C 25.8188 18.6225 26.1343 18.3138 26.1343 17.8923L 26.1343 17.8825C 26.1343 17.4611 25.8188 17.1523 25.3881 17.1523L 23.9459 17.1523C 23.5152 17.1523 23.1997 17.4611 23.1997 17.8825Z"/>
<path id="path42_fill" d="M 24.6326 17.8825L 24.6326 17.8923C 24.6326 18.3138 24.9481 18.6225 25.3788 18.6225L 26.821 18.6225C 27.2516 18.6225 27.5671 18.3138 27.5671 17.8923L 27.5671 17.8825C 27.5671 17.4611 27.2516 17.1523 26.821 17.1523L 25.3788 17.1523C 24.9481 17.1523 24.6326 17.4611 24.6326 17.8825Z"/>
<path id="path43_fill" d="M 0 24.0083L 0 24.0181C 0 24.4396 0.315485 24.7483 0.746148 24.7483L 2.18837 24.7483C 2.61903 24.7483 2.93451 24.4396 2.93451 24.0181L 2.93451 24.0083C 2.93451 23.5869 2.61903 23.2781 2.18837 23.2781L 0.746148 23.2781C 0.315485 23.2781 0 23.5869 0 24.0083Z"/>
<path id="path44_fill" d="M 1.43287 24.0083L 1.43287 24.0181C 1.43287 24.4396 1.74835 24.7483 2.17902 24.7483L 3.62123 24.7483C 4.0519 24.7483 4.36738 24.4396 4.36738 24.0181L 4.36738 24.0083C 4.36738 23.5869 4.0519 23.2781 3.62123 23.2781L 2.17902 23.2781C 1.74835 23.2781 1.43287 23.5869 1.43287 24.0083Z"/>
<path id="path45_fill" d="M 2.86574 24.0083L 2.86574 24.0181C 2.86574 24.4396 3.18122 24.7483 3.61188 24.7483L 5.0541 24.7483C 5.48477 24.7483 5.80025 24.4396 5.80025 24.0181L 5.80025 24.0083C 5.80025 23.5869 5.48477 23.2781 5.0541 23.2781L 3.61188 23.2781C 3.18122 23.2781 2.86574 23.5869 2.86574 24.0083Z"/>
<path id="path46_fill" d="M 4.2986 24.0083L 4.2986 24.0181C 4.2986 24.4396 4.61409 24.7483 5.04475 24.7483L 6.48697 24.7483C 6.91763 24.7483 7.23312 24.4396 7.23312 24.0181L 7.23312 24.0083C 7.23312 23.5869 6.91763 23.2781 6.48697 23.2781L 5.04475 23.2781C 4.61409 23.2781 4.2986 23.5869 4.2986 24.0083Z"/>
<path id="path47_fill" d="M 5.73147 24.0083L 5.73147 24.0181C 5.73147 24.4396 6.04696 24.7483 6.47762 24.7483L 7.91984 24.7483C 8.3505 24.7483 8.66599 24.4396 8.66599 24.0181L 8.66599 24.0083C 8.66599 23.5869 8.3505 23.2781 7.91984 23.2781L 6.47762 23.2781C 6.04696 23.2781 5.73147 23.5869 5.73147 24.0083Z"/>
<path id="path48_fill" d="M 7.16434 24.0083L 7.16434 24.0181C 7.16434 24.4396 7.47983 24.7483 7.91049 24.7483L 9.35271 24.7483C 9.78337 24.7483 10.0989 24.4396 10.0989 24.0181L 10.0989 24.0083C 10.0989 23.5869 9.78337 23.2781 9.35271 23.2781L 7.91049 23.2781C 7.47983 23.2781 7.16434 23.5869 7.16434 24.0083Z"/>
<path id="path49_fill" d="M 11.5999 24.0083L 11.5999 24.0181C 11.5999 24.4396 11.9154 24.7483 12.346 24.7483L 13.7882 24.7483C 14.2189 24.7483 14.5344 24.4396 14.5344 24.0181L 14.5344 24.0083C 14.5344 23.5869 14.2189 23.2781 13.7882 23.2781L 12.346 23.2781C 11.9154 23.2781 11.5999 23.5869 11.5999 24.0083Z"/>
<path id="path50_fill" d="M 13.0327 24.0083L 13.0327 24.0181C 13.0327 24.4396 13.3482 24.7483 13.7789 24.7483L 15.2211 24.7483C 15.6518 24.7483 15.9673 24.4396 15.9673 24.0181L 15.9673 24.0083C 15.9673 23.5869 15.6518 23.2781 15.2211 23.2781L 13.7789 23.2781C 13.3482 23.2781 13.0327 23.5869 13.0327 24.0083Z"/>
<path id="path51_fill" d="M 14.4656 24.0083L 14.4656 24.0181C 14.4656 24.4396 14.7811 24.7483 15.2118 24.7483L 16.654 24.7483C 17.0846 24.7483 17.4001 24.4396 17.4001 24.0181L 17.4001 24.0083C 17.4001 23.5869 17.0846 23.2781 16.654 23.2781L 15.2118 23.2781C 14.7811 23.2781 14.4656 23.5869 14.4656 24.0083Z"/>
<path id="path52_fill" d="M 15.8985 24.0083L 15.8985 24.0181C 15.8985 24.4396 16.214 24.7483 16.6446 24.7483L 18.0868 24.7483C 18.5175 24.7483 18.833 24.4396 18.833 24.0181L 18.833 24.0083C 18.833 23.5869 18.5175 23.2781 18.0868 23.2781L 16.6446 23.2781C 16.214 23.2781 15.8985 23.5869 15.8985 24.0083Z"/>
<path id="path53_fill" d="M 17.3313 24.0083L 17.3313 24.0181C 17.3313 24.4396 17.6468 24.7483 18.0775 24.7483L 19.5197 24.7483C 19.9504 24.7483 20.2659 24.4396 20.2659 24.0181L 20.2659 24.0083C 20.2659 23.5869 19.9504 23.2781 19.5197 23.2781L 18.0775 23.2781C 17.6468 23.2781 17.3313 23.5869 17.3313 24.0083Z"/>
<path id="path54_fill" d="M 18.7642 24.0083L 18.7642 24.0181C 18.7642 24.4396 19.0797 24.7483 19.5104 24.7483L 20.9526 24.7483C 21.3832 24.7483 21.6987 24.4396 21.6987 24.0181L 21.6987 24.0083C 21.6987 23.5869 21.3832 23.2781 20.9526 23.2781L 19.5104 23.2781C 19.0797 23.2781 18.7642 23.5869 18.7642 24.0083Z"/>
<path id="path55_fill" d="M 20.1971 24.0083L 20.1971 24.0181C 20.1971 24.4396 20.5126 24.7483 20.9432 24.7483L 22.3855 24.7483C 22.8161 24.7483 23.1316 24.4396 23.1316 24.0181L 23.1316 24.0083C 23.1316 23.5869 22.8161 23.2781 22.3855 23.2781L 20.9432 23.2781C 20.5126 23.2781 20.1971 23.5869 20.1971 24.0083Z"/>
<path id="path56_fill" d="M 24.6326 24.0083L 24.6326 24.0181C 24.6326 24.4396 24.9481 24.7483 25.3788 24.7483L 26.821 24.7483C 27.2516 24.7483 27.5671 24.4396 27.5671 24.0181L 27.5671 24.0083C 27.5671 23.5869 27.2516 23.2781 26.821 23.2781L 25.3788 23.2781C 24.9481 23.2781 24.6326 23.5869 24.6326 24.0083Z"/>
<path id="path57_fill" d="M 26.0655 24.0083L 26.0655 24.0181C 26.0655 24.4396 26.381 24.7483 26.8116 24.7483L 28.2539 24.7483C 28.6845 24.7483 29 24.4396 29 24.0181L 29 24.0083C 29 23.5869 28.6845 23.2781 28.2539 23.2781L 26.8116 23.2781C 26.381 23.2781 26.0655 23.5869 26.0655 24.0083Z"/>
<path id="path58_fill" d="M 0 30.1342L 0 30.144C 0 30.5654 0.315485 30.8742 0.746148 30.8742L 2.18837 30.8742C 2.61903 30.8742 2.93451 30.5654 2.93451 30.144L 2.93451 30.1342C 2.93451 29.7127 2.61903 29.404 2.18837 29.404L 0.746148 29.404C 0.315485 29.404 0 29.7127 0 30.1342Z"/>
<path id="path59_fill" d="M 1.43287 30.1342L 1.43287 30.144C 1.43287 30.5654 1.74835 30.8742 2.17902 30.8742L 3.62123 30.8742C 4.0519 30.8742 4.36738 30.5654 4.36738 30.144L 4.36738 30.1342C 4.36738 29.7127 4.0519 29.404 3.62123 29.404L 2.17902 29.404C 1.74835 29.404 1.43287 29.7127 1.43287 30.1342Z"/>
<path id="path60_fill" d="M 2.86574 30.1342L 2.86574 30.144C 2.86574 30.5654 3.18122 30.8742 3.61188 30.8742L 5.0541 30.8742C 5.48477 30.8742 5.80025 30.5654 5.80025 30.144L 5.80025 30.1342C 5.80025 29.7127 5.48477 29.404 5.0541 29.404L 3.61188 29.404C 3.18122 29.404 2.86574 29.7127 2.86574 30.1342Z"/>
<path id="path61_fill" d="M 7.30127 30.1342L 7.30127 30.144C 7.30127 30.5654 7.61676 30.8742 8.04742 30.8742L 9.48964 30.8742C 9.9203 30.8742 10.2358 30.5654 10.2358 30.144L 10.2358 30.1342C 10.2358 29.7127 9.9203 29.404 9.48964 29.404L 8.04742 29.404C 7.61676 29.404 7.30127 29.7127 7.30127 30.1342Z"/>
<path id="path62_fill" d="M 8.73414 30.1342L 8.73414 30.144C 8.73414 30.5654 9.04962 30.8742 9.48029 30.8742L 10.9225 30.8742C 11.3532 30.8742 11.6687 30.5654 11.6687 30.144L 11.6687 30.1342C 11.6687 29.7127 11.3532 29.404 10.9225 29.404L 9.48029 29.404C 9.04962 29.404 8.73414 29.7127 8.73414 30.1342Z"/>
<path id="path63_fill" d="M 10.167 30.1342L 10.167 30.144C 10.167 30.5654 10.4825 30.8742 10.9132 30.8742L 12.3554 30.8742C 12.786 30.8742 13.1015 30.5654 13.1015 30.144L 13.1015 30.1342C 13.1015 29.7127 12.786 29.404 12.3554 29.404L 10.9132 29.404C 10.4825 29.404 10.167 29.7127 10.167 30.1342Z"/>
<path id="path64_fill" d="M 14.6025 30.1342L 14.6025 30.144C 14.6025 30.5654 14.918 30.8742 15.3487 30.8742L 16.7909 30.8742C 17.2216 30.8742 17.5371 30.5654 17.5371 30.144L 17.5371 30.1342C 17.5371 29.7127 17.2216 29.404 16.7909 29.404L 15.3487 29.404C 14.918 29.404 14.6025 29.7127 14.6025 30.1342Z"/>
<path id="path65_fill" d="M 16.0354 30.1342L 16.0354 30.144C 16.0354 30.5654 16.3509 30.8742 16.7816 30.8742L 18.2238 30.8742C 18.6544 30.8742 18.9699 30.5654 18.9699 30.144L 18.9699 30.1342C 18.9699 29.7127 18.6544 29.404 18.2238 29.404L 16.7816 29.404C 16.3509 29.404 16.0354 29.7127 16.0354 30.1342Z"/>
<path id="path66_fill" d="M 17.4683 30.1342L 17.4683 30.144C 17.4683 30.5654 17.7838 30.8742 18.2144 30.8742L 19.6566 30.8742C 20.0873 30.8742 20.4028 30.5654 20.4028 30.144L 20.4028 30.1342C 20.4028 29.7127 20.0873 29.404 19.6566 29.404L 18.2144 29.404C 17.7838 29.404 17.4683 29.7127 17.4683 30.1342Z"/>
<path id="path67_fill" d="M 18.9011 30.1342L 18.9011 30.144C 18.9011 30.5654 19.2166 30.8742 19.6473 30.8742L 21.0895 30.8742C 21.5202 30.8742 21.8357 30.5654 21.8357 30.144L 21.8357 30.1342C 21.8357 29.7127 21.5202 29.404 21.0895 29.404L 19.6473 29.404C 19.2166 29.404 18.9011 29.7127 18.9011 30.1342Z"/>
<path id="path68_fill" d="M 20.334 30.1342L 20.334 30.144C 20.334 30.5654 20.6495 30.8742 21.0802 30.8742L 22.5224 30.8742C 22.953 30.8742 23.2685 30.5654 23.2685 30.144L 23.2685 30.1342C 23.2685 29.7127 22.953 29.404 22.5224 29.404L 21.0802 29.404C 20.6495 29.404 20.334 29.7127 20.334 30.1342Z"/>
<path id="path69_fill" d="M 24.7695 30.1342L 24.7695 30.144C 24.7695 30.5654 25.085 30.8742 25.5157 30.8742L 26.9579 30.8742C 27.3886 30.8742 27.7041 30.5654 27.7041 30.144L 27.7041 30.1342C 27.7041 29.7127 27.3886 29.404 26.9579 29.404L 25.5157 29.404C 25.085 29.404 24.7695 29.7127 24.7695 30.1342Z"/>
<path id="path70_fill" d="M 0 36.26L 0 36.2698C 0 36.6913 0.315485 37 0.746148 37L 2.18837 37C 2.61903 37 2.93451 36.6913 2.93451 36.2698L 2.93451 36.26C 2.93451 35.8385 2.61903 35.5298 2.18837 35.5298L 0.746148 35.5298C 0.315485 35.5298 0 35.8385 0 36.26Z"/>
<path id="path71_fill" d="M 1.43287 36.26L 1.43287 36.2698C 1.43287 36.6913 1.74835 37 2.17902 37L 3.62123 37C 4.0519 37 4.36738 36.6913 4.36738 36.2698L 4.36738 36.26C 4.36738 35.8385 4.0519 35.5298 3.62123 35.5298L 2.17902 35.5298C 1.74835 35.5298 1.43287 35.8385 1.43287 36.26Z"/>
<path id="path72_fill" d="M 2.86574 36.26L 2.86574 36.2698C 2.86574 36.6913 3.18122 37 3.61188 37L 5.0541 37C 5.48477 37 5.80025 36.6913 5.80025 36.2698L 5.80025 36.26C 5.80025 35.8385 5.48477 35.5298 5.0541 35.5298L 3.61188 35.5298C 3.18122 35.5298 2.86574 35.8385 2.86574 36.26Z"/>
<path id="path73_fill" d="M 4.2986 36.26L 4.2986 36.2698C 4.2986 36.6913 4.61409 37 5.04475 37L 6.48697 37C 6.91763 37 7.23312 36.6913 7.23312 36.2698L 7.23312 36.26C 7.23312 35.8385 6.91763 35.5298 6.48697 35.5298L 5.04475 35.5298C 4.61409 35.5298 4.2986 35.8385 4.2986 36.26Z"/>
<path id="path74_fill" d="M 5.73147 36.26L 5.73147 36.2698C 5.73147 36.6913 6.04696 37 6.47762 37L 7.91984 37C 8.3505 37 8.66599 36.6913 8.66599 36.2698L 8.66599 36.26C 8.66599 35.8385 8.3505 35.5298 7.91984 35.5298L 6.47762 35.5298C 6.04696 35.5298 5.73147 35.8385 5.73147 36.26Z"/>
<path id="path75_fill" d="M 7.16434 36.26L 7.16434 36.2698C 7.16434 36.6913 7.47983 37 7.91049 37L 9.35271 37C 9.78337 37 10.0989 36.6913 10.0989 36.2698L 10.0989 36.26C 10.0989 35.8385 9.78337 35.5298 9.35271 35.5298L 7.91049 35.5298C 7.47983 35.5298 7.16434 35.8385 7.16434 36.26Z"/>
<path id="path76_fill" d="M 8.59721 36.26L 8.59721 36.2698C 8.59721 36.6913 8.91269 37 9.34336 37L 10.7856 37C 11.2162 37 11.5317 36.6913 11.5317 36.2698L 11.5317 36.26C 11.5317 35.8385 11.2162 35.5298 10.7856 35.5298L 9.34336 35.5298C 8.91269 35.5298 8.59721 35.8385 8.59721 36.26Z"/>
<path id="path77_fill" d="M 10.0301 36.26L 10.0301 36.2698C 10.0301 36.6913 10.3456 37 10.7762 37L 12.2184 37C 12.6491 37 12.9646 36.6913 12.9646 36.2698L 12.9646 36.26C 12.9646 35.8385 12.6491 35.5298 12.2184 35.5298L 10.7762 35.5298C 10.3456 35.5298 10.0301 35.8385 10.0301 36.26Z"/>
<path id="path78_fill" d="M 11.4629 36.26L 11.4629 36.2698C 11.4629 36.6913 11.7784 37 12.2091 37L 13.6513 37C 14.082 37 14.3975 36.6913 14.3975 36.2698L 14.3975 36.26C 14.3975 35.8385 14.082 35.5298 13.6513 35.5298L 12.2091 35.5298C 11.7784 35.5298 11.4629 35.8385 11.4629 36.26Z"/>
<path id="path79_fill" d="M 15.8985 36.26L 15.8985 36.2698C 15.8985 36.6913 16.214 37 16.6446 37L 18.0868 37C 18.5175 37 18.833 36.6913 18.833 36.2698L 18.833 36.26C 18.833 35.8385 18.5175 35.5298 18.0868 35.5298L 16.6446 35.5298C 16.214 35.5298 15.8985 35.8385 15.8985 36.26Z"/>
<path id="path80_fill" d="M 17.3313 36.26L 17.3313 36.2698C 17.3313 36.6913 17.6468 37 18.0775 37L 19.5197 37C 19.9504 37 20.2659 36.6913 20.2659 36.2698L 20.2659 36.26C 20.2659 35.8385 19.9504 35.5298 19.5197 35.5298L 18.0775 35.5298C 17.6468 35.5298 17.3313 35.8385 17.3313 36.26Z"/>
<path id="path81_fill" d="M 18.7642 36.26L 18.7642 36.2698C 18.7642 36.6913 19.0797 37 19.5104 37L 20.9526 37C 21.3832 37 21.6987 36.6913 21.6987 36.2698L 21.6987 36.26C 21.6987 35.8385 21.3832 35.5298 20.9526 35.5298L 19.5104 35.5298C 19.0797 35.5298 18.7642 35.8385 18.7642 36.26Z"/>
<path id="path82_fill" d="M 20.1971 36.26L 20.1971 36.2698C 20.1971 36.6913 20.5126 37 20.9432 37L 22.3855 37C 22.8161 37 23.1316 36.6913 23.1316 36.2698L 23.1316 36.26C 23.1316 35.8385 22.8161 35.5298 22.3855 35.5298L 20.9432 35.5298C 20.5126 35.5298 20.1971 35.8385 20.1971 36.26Z"/>
<path id="path83_fill" d="M 9.55297 1.10345C 10.4183 -0.367816 12.5817 -0.367816 13.447 1.10345L 22.6954 16.8276C 23.5608 18.2989 22.4791 20.1379 20.7484 20.1379L 2.25159 20.1379C 0.520897 20.1379 -0.560787 18.2989 0.304561 16.8276L 9.55297 1.10345Z"/>
<path id="path84_fill" d="M 0 2.24824C 0 1.00657 0.988061 0 2.2069 0L 14.3448 0C 15.5637 0 16.5517 1.00657 16.5517 2.24824L 16.5517 5.6206C 16.5517 6.86227 15.5637 7.86884 14.3448 7.86884L 2.2069 7.86884C 0.988061 7.86884 0 6.86227 0 5.6206L 0 2.24824Z"/>
<path id="path85_fill" d="M 19.296 79.008C 14.928 79.008 11.232 77.808 8.208 75.408C 5.232 72.96 3.048 69.696 1.656 65.616L 10.584 61.44L 11.448 62.88C 12.84 65.28 14.16 67.152 15.408 68.496C 16.704 69.84 18.312 70.512 20.232 70.512C 21.48 70.512 22.584 69.912 23.544 68.712C 24.552 67.512 25.056 66.192 25.056 64.752C 25.056 63.408 24.72 62.184 24.048 61.08C 23.376 59.976 22.512 59.088 21.456 58.416L 12.024 52.8C 9.288 51.264 7.104 49.32 5.472 46.968C 3.84 44.616 3.024 41.976 3.024 39.048C 3.024 35.928 3.744 33.144 5.184 30.696C 6.672 28.248 8.664 26.352 11.16 25.008C 13.704 23.664 16.56 22.992 19.728 22.992C 23.424 22.992 26.568 23.904 29.16 25.728C 31.752 27.552 33.672 30.264 34.92 33.864L 25.992 37.896C 25.8 37.512 25.392 36.648 24.768 35.304C 24.144 33.96 23.376 33 22.464 32.424C 21.6 31.8 20.52 31.488 19.224 31.488C 17.64 31.488 16.416 31.992 15.552 33C 14.736 34.008 14.328 35.304 14.328 36.888C 14.328 38.04 14.64 39.096 15.264 40.056C 15.936 40.968 16.728 41.688 17.64 42.216L 26.352 47.328C 32.784 50.976 36.168 55.776 36.504 61.728C 36.504 65.136 35.736 68.16 34.2 70.8C 32.712 73.392 30.648 75.408 28.008 76.848C 25.416 78.288 22.512 79.008 19.296 79.008ZM 39.2546 78L 50.6306 24.648L 65.6786 24L 77.3426 77.568L 65.8226 78L 63.8786 66.408L 50.9906 66.408L 48.6866 78L 39.2546 78ZM 52.9346 57.768L 61.9346 57.768L 56.9666 31.92L 52.9346 57.768ZM 83.1572 78.432L 83.1572 24L 110.589 24L 109.725 32.496L 93.7412 32.496L 93.7412 46.608L 105.045 46.608L 105.045 55.536L 93.7412 55.536L 93.7412 77.568L 83.1572 78.432ZM 112.098 78L 123.474 24.648L 138.522 24L 150.186 77.568L 138.666 78L 136.722 66.408L 123.834 66.408L 121.53 78L 112.098 78ZM 125.778 57.768L 134.778 57.768L 129.81 31.92L 125.778 57.768ZM 170.617 54.312L 166.513 54.312L 166.513 77.568L 156.001 78.432L 156.001 24.432L 168.817 24C 175.009 24 179.857 25.248 183.361 27.744C 186.865 30.192 188.617 33.96 188.617 39.048C 188.617 42.408 187.945 45.168 186.601 47.328C 185.305 49.488 183.409 51.288 180.913 52.728L 185.737 64.464L 190.633 76.128L 180.265 78.936L 170.617 54.312ZM 170.113 46.536C 172.609 46.536 174.553 46.032 175.945 45.024C 177.385 43.968 178.105 42 178.105 39.12C 178.105 34.656 175.897 32.424 171.481 32.424L 166.513 32.424L 166.513 46.536L 170.113 46.536ZM 196.712 78.432L 196.712 24.864L 207.296 24L 207.296 77.568L 196.712 78.432Z"/>
<path id="path86_fill" d="M 329.322 78.936L 319.962 53.808L 315.858 60.936L 315.858 78L 305.274 78L 305.274 24.864L 315.858 24L 315.858 47.616L 328.674 24L 339.906 24L 328.314 46.32L 340.05 76.488L 329.322 78.936ZM 345.845 78.432L 345.845 24.864L 356.429 24L 356.429 77.568L 345.845 78.432ZM 391.717 78.432L 375.949 44.664L 375.949 77.568L 366.517 78L 366.517 24.432L 377.533 24L 391.501 56.112L 391.501 24.864L 400.429 24L 400.429 77.568L 391.717 78.432ZM 410.532 24L 421.62 24C 428.724 24 434.028 26.256 437.532 30.768C 441.036 35.28 442.788 42.096 442.788 51.216C 442.788 56.064 442.116 60.504 440.772 64.536C 439.476 68.568 437.388 71.832 434.508 74.328C 431.628 76.776 427.956 78 423.492 78L 410.532 78L 410.532 24ZM 422.556 69.576C 426.204 69.576 428.724 68.016 430.116 64.896C 431.556 61.728 432.276 57.84 432.276 53.232L 432.276 50.784C 432.276 47.472 432.06 44.544 431.628 42C 431.244 39.408 430.308 37.176 428.82 35.304C 427.38 33.384 425.196 32.424 422.268 32.424L 421.044 32.424L 421.044 69.576L 422.556 69.576ZM 450.399 78L 450.399 24.864L 460.911 24L 460.911 69.576L 478.623 69.576L 477.543 78L 450.399 78ZM 484.149 78L 484.149 24L 511.581 24L 510.717 32.424L 494.733 32.424L 494.733 45.312L 506.109 45.312L 506.037 54.384L 494.733 54.384L 494.733 69.576L 512.157 69.576L 511.293 78L 484.149 78Z"/>
</defs>
</svg>
